<svg width="4188" height="697" viewBox="0 0 4188 697" fill="none" xmlns="http://www.w3.org/2000/svg">
<path d="M2482.01 215.316V289.742L2570.4 364.168L2482.01 438.593V513.019L2644.83 364.168L2482.01 215.316Z" fill="white"/>
<path d="M2116.32 215.316V289.742L2027.93 364.168L2116.32 438.593V513.019L1953.51 364.168L2116.32 215.316Z" fill="white"/>
<path d="M11.9999 681.587H54.0068L291.813 40.4346H249.806L11.9999 681.587Z" fill="#F884D9"/>
<path d="M54.0068 681.587V689.728H59.6701L61.6396 684.418L54.0068 681.587ZM11.9999 681.587L4.36711 678.756L0.29759 689.728H11.9999V681.587ZM249.806 40.4346V32.2937H244.142L242.173 37.6035L249.806 40.4346ZM291.813 40.4346L299.445 43.2656L303.515 32.2937H291.813V40.4346ZM54.0068 673.447H11.9999V689.728H54.0068V673.447ZM284.18 37.6035L46.374 678.756L61.6396 684.418L299.445 43.2656L284.18 37.6035ZM249.806 48.5754H291.813V32.2937H249.806V48.5754ZM19.6326 684.418L257.439 43.2656L242.173 37.6035L4.36711 678.756L19.6326 684.418Z" fill="#F884D9"/>
<path d="M96.0134 681.587H245.48C292.371 681.587 339.588 674.565 387.13 660.521C434.671 646.477 479.494 625.716 521.598 598.238C564.353 570.76 602.209 537.175 635.166 497.485C669.001 457.184 695.317 411.693 714.115 361.011C732.913 310.329 740.342 264.838 736.403 224.537C733.116 184.236 720.173 150.652 697.574 123.784C675.854 96.3064 646.432 75.5453 609.308 61.501C572.185 47.4567 530.177 40.4346 483.286 40.4346H333.819L318.871 80.7356H468.338C553.654 80.7356 616.999 104.855 658.373 153.094C698.841 203.776 702.768 273.081 670.154 361.011C637.541 448.941 582.202 518.246 504.139 568.928C426.981 617.167 345.744 641.286 260.428 641.286H110.961L96.0134 681.587Z" fill="#41B6E6"/>
<path d="M96.0134 681.587L88.3807 678.756L84.3111 689.728H96.0134V681.587ZM110.961 641.286V633.145H105.298L103.328 638.455L110.961 641.286ZM504.139 568.928L508.454 575.831L508.513 575.794L508.572 575.756L504.139 568.928ZM658.373 153.094L664.735 148.015L664.645 147.903L664.552 147.794L658.373 153.094ZM318.871 80.7356L311.239 77.9046L307.169 88.8765H318.871V80.7356ZM333.819 40.4346V32.2937H328.156L326.186 37.6035L333.819 40.4346ZM697.574 123.784L691.188 128.833L691.264 128.93L691.344 129.025L697.574 123.784ZM736.403 224.537L728.289 225.199L728.295 225.264L728.301 225.329L736.403 224.537ZM635.166 497.485L628.931 492.25L628.917 492.267L628.903 492.284L635.166 497.485ZM521.598 598.238L517.196 591.389L517.172 591.404L517.149 591.42L521.598 598.238ZM387.13 660.521L384.823 652.714L387.13 660.521ZM245.48 673.447H96.0134V689.728H245.48V673.447ZM384.823 652.714C337.988 666.549 291.547 673.447 245.48 673.447V689.728C293.196 689.728 341.188 682.581 389.436 668.328L384.823 652.714ZM517.149 591.42C475.698 618.472 431.595 638.897 384.823 652.714L389.436 668.328C437.747 654.057 483.29 632.959 526.047 605.055L517.149 591.42ZM628.903 492.284C596.47 531.343 559.24 564.369 517.196 591.389L525.999 605.086C569.466 577.15 607.948 543.008 641.429 502.686L628.903 492.284ZM706.482 358.18C688 408.01 662.149 452.684 628.931 492.25L641.401 502.719C675.852 461.684 702.634 415.375 721.748 363.842L706.482 358.18ZM728.301 225.329C732.087 264.063 724.988 308.285 706.482 358.18L721.748 363.842C740.838 312.373 748.598 265.613 744.506 223.745L728.301 225.329ZM691.344 129.025C712.695 154.409 725.118 186.318 728.289 225.199L744.517 223.875C741.114 182.154 727.65 146.894 703.804 118.544L691.344 129.025ZM606.428 69.1152C642.359 82.7087 670.499 102.66 691.188 128.833L703.961 118.736C681.209 89.953 650.504 68.382 612.189 53.8868L606.428 69.1152ZM483.286 48.5754C529.368 48.5754 570.375 55.476 606.428 69.1152L612.189 53.8868C573.994 39.4374 530.987 32.2937 483.286 32.2937V48.5754ZM333.819 48.5754H483.286V32.2937H333.819V48.5754ZM326.504 83.5666L341.452 43.2656L326.186 37.6035L311.239 77.9046L326.504 83.5666ZM468.338 72.5947H318.871V88.8765H468.338V72.5947ZM664.552 147.794C621.149 97.1882 555.17 72.5947 468.338 72.5947V88.8765C552.138 88.8765 612.85 112.522 652.194 158.394L664.552 147.794ZM677.787 363.842C710.908 274.543 707.709 201.836 664.735 148.015L652.011 158.174C689.972 205.716 694.627 271.62 662.521 358.18L677.787 363.842ZM508.572 575.756C588.116 524.113 644.57 453.4 677.787 363.842L662.521 358.18C630.512 444.481 576.289 512.379 499.706 562.1L508.572 575.756ZM260.428 649.427C347.373 649.427 430.093 624.822 508.454 575.831L499.823 562.025C423.87 609.511 344.115 633.145 260.428 633.145V649.427ZM110.961 649.427H260.428V633.145H110.961V649.427ZM103.646 684.418L118.594 644.117L103.328 638.455L88.3807 678.756L103.646 684.418Z" fill="#41B6E6"/>
<path d="M720.529 683.421H762.536L1000.34 42.2686H958.335L720.529 683.421Z" fill="#41B6E6"/>
<path d="M1193.35 683.421H1244.15L1152.09 402.23C1186.66 398.566 1220.55 389.712 1253.77 375.668C1287.63 361.624 1317.68 342.084 1343.89 317.048C1370.76 292.013 1391.11 260.871 1404.92 223.623C1421 180.269 1423.82 145.464 1413.37 119.207C1403.14 92.3395 1382.71 72.7996 1352.07 60.5872C1322.08 48.3748 1285.6 42.2686 1242.61 42.2686H1042.35L1027.74 81.6536H1228.01C1260.57 81.6536 1289.04 86.5386 1313.42 96.3086C1338.03 105.468 1354.95 120.428 1364.18 141.189C1374.07 161.95 1372.67 189.428 1359.98 223.623C1347.53 257.207 1328.54 284.685 1303.03 306.057C1278.4 326.818 1250.27 342.084 1218.64 351.854C1187.24 361.013 1155.26 365.593 1122.69 365.593H922.427L907.819 404.978H1102.22L1193.35 683.421Z" fill="#41B6E6"/>
<path d="M762.536 683.421V691.562H768.2L770.169 686.252L762.536 683.421ZM720.529 683.421L712.897 680.59L708.827 691.562H720.529V683.421ZM958.335 42.2686V34.1277H952.672L950.702 39.4375L958.335 42.2686ZM1000.34 42.2686L1007.97 45.0996L1012.04 34.1277H1000.34V42.2686ZM1244.15 683.421V691.562H1255.38L1251.89 680.888L1244.15 683.421ZM1193.35 683.421L1185.61 685.954L1187.45 691.562H1193.35V683.421ZM1102.22 404.978L1109.96 402.446L1108.12 396.837H1102.22V404.978ZM907.819 404.978L900.186 402.147L896.117 413.119H907.819V404.978ZM922.427 365.593V357.452H916.764L914.794 362.762L922.427 365.593ZM1218.64 351.854L1220.92 359.669L1220.98 359.651L1221.04 359.632L1218.64 351.854ZM1303.03 306.057L1297.81 299.817L1297.8 299.824L1297.79 299.832L1303.03 306.057ZM1359.98 223.623L1367.62 226.454L1359.98 223.623ZM1364.18 141.189L1356.74 144.497L1356.79 144.593L1356.83 144.689L1364.18 141.189ZM1313.42 96.3086L1310.4 103.865L1310.49 103.903L1310.58 103.938L1313.42 96.3086ZM1027.74 81.6536L1020.11 78.8226L1016.04 89.7945H1027.74V81.6536ZM1042.35 42.2686V34.1277H1036.69L1034.72 39.4375L1042.35 42.2686ZM1352.07 60.5872L1349 68.1268L1349.03 68.1382L1349.06 68.1495L1352.07 60.5872ZM1413.37 119.207L1405.76 122.102L1405.78 122.16L1405.8 122.217L1413.37 119.207ZM1404.92 223.623L1412.56 226.454V226.454L1404.92 223.623ZM1343.89 317.048L1338.34 311.092L1338.31 311.126L1338.27 311.161L1343.89 317.048ZM1253.77 375.668L1250.65 368.148L1250.62 368.159L1250.6 368.17L1253.77 375.668ZM1152.09 402.23L1151.23 394.135L1141.22 395.195L1144.35 404.763L1152.09 402.23ZM762.536 675.281H720.529V691.562H762.536V675.281ZM992.709 39.4375L754.903 680.59L770.169 686.252L1007.97 45.0996L992.709 39.4375ZM958.335 50.4094H1000.34V34.1277H958.335V50.4094ZM728.162 686.252L965.968 45.0996L950.702 39.4375L712.897 680.59L728.162 686.252ZM1244.15 675.281H1193.35V691.562H1244.15V675.281ZM1144.35 404.763L1236.41 685.954L1251.89 680.888L1159.82 399.697L1144.35 404.763ZM1250.6 368.17C1218.09 381.914 1184.98 390.558 1151.23 394.135L1152.95 410.326C1188.34 406.574 1223.02 397.511 1256.94 383.166L1250.6 368.17ZM1338.27 311.161C1312.79 335.494 1283.6 354.484 1250.65 368.148L1256.89 383.188C1291.67 368.763 1322.56 348.673 1349.52 322.936L1338.27 311.161ZM1397.29 220.792C1383.88 256.949 1364.21 286.991 1338.34 311.092L1349.44 323.005C1377.32 297.035 1398.34 264.793 1412.56 226.454L1397.29 220.792ZM1405.8 122.217C1415.16 145.725 1413.09 178.198 1397.29 220.792L1412.56 226.454C1428.92 182.34 1432.48 145.203 1420.93 116.196L1405.8 122.217ZM1349.06 68.1495C1377.92 79.6548 1396.47 97.6876 1405.76 122.102L1420.98 116.311C1409.82 86.9915 1387.5 65.9445 1355.09 53.0249L1349.06 68.1495ZM1242.61 50.4094C1284.87 50.4094 1320.25 56.4183 1349 68.1268L1355.14 53.0476C1323.92 40.3313 1286.33 34.1277 1242.61 34.1277V50.4094ZM1042.35 50.4094H1242.61V34.1277H1042.35V50.4094ZM1035.37 84.4846L1049.98 45.0996L1034.72 39.4375L1020.11 78.8226L1035.37 84.4846ZM1228.01 73.5128H1027.74V89.7945H1228.01V73.5128ZM1316.45 88.7519C1290.91 78.5157 1261.37 73.5128 1228.01 73.5128V89.7945C1259.77 89.7945 1287.18 94.5616 1310.4 103.865L1316.45 88.7519ZM1371.62 137.881C1361.36 114.805 1342.58 98.4729 1316.26 88.6791L1310.58 103.938C1333.49 112.463 1348.54 126.051 1356.74 144.497L1371.62 137.881ZM1367.62 226.454C1380.63 191.37 1382.79 161.336 1371.53 137.69L1356.83 144.689C1365.34 162.565 1364.71 187.487 1352.35 220.792L1367.62 226.454ZM1308.26 312.298C1334.94 289.949 1354.71 261.26 1367.62 226.454L1352.35 220.792C1340.35 253.155 1322.15 279.422 1297.81 299.817L1308.26 312.298ZM1221.04 359.632C1253.68 349.549 1282.79 333.766 1308.28 312.282L1297.79 299.832C1274.01 319.871 1246.85 334.619 1216.24 344.076L1221.04 359.632ZM1122.69 373.734C1156.03 373.734 1188.78 369.043 1220.92 359.669L1216.36 344.039C1185.7 352.983 1154.48 357.452 1122.69 357.452V373.734ZM922.427 373.734H1122.69V357.452H922.427V373.734ZM915.452 407.809L930.06 368.424L914.794 362.762L900.186 402.147L915.452 407.809ZM1102.22 396.837H907.819V413.119H1102.22V396.837ZM1201.09 680.889L1109.96 402.446L1094.49 407.51L1185.61 685.954L1201.09 680.889Z" fill="#41B6E6"/>
<path d="M1422.32 578.089L1620.03 45.0166H1662.04L1486.06 519.47L1422.32 578.089Z" fill="#41B6E6"/>
<path d="M1402.74 686.169H1382.23L1397.18 645.868L2053.78 45.0166H2102.63L1402.74 686.169Z" fill="#41B6E6"/>
<path d="M1883.38 686.169H1833.56L1740.26 421.465L1778.57 386.659L1883.38 686.169Z" fill="#41B6E6"/>
<path d="M1620.03 45.0166V36.8757H1614.37L1612.4 42.1856L1620.03 45.0166ZM1422.32 578.089L1414.68 575.258L1427.83 584.082L1422.32 578.089ZM1486.06 519.47L1491.57 525.462L1493.02 524.137L1493.7 522.301L1486.06 519.47ZM1662.04 45.0166L1669.67 47.8476L1673.74 36.8757H1662.04V45.0166ZM1382.23 686.169L1374.6 683.338L1370.53 694.31H1382.23V686.169ZM1402.74 686.169V694.31H1405.91L1408.24 692.172L1402.74 686.169ZM2102.63 45.0166L2108.12 51.0194L2123.56 36.8757H2102.63V45.0166ZM2053.78 45.0166V36.8757H2050.62L2048.28 39.0108L2053.78 45.0166ZM1397.18 645.868L1391.68 639.863L1390.23 641.192L1389.54 643.037L1397.18 645.868ZM1833.56 686.169L1825.88 688.875L1827.8 694.31H1833.56V686.169ZM1883.38 686.169V694.31H1894.85L1891.06 683.48L1883.38 686.169ZM1778.57 386.659L1786.26 383.97L1782.2 372.368L1773.1 380.634L1778.57 386.659ZM1740.26 421.465L1734.79 415.439L1730.79 419.073L1732.59 424.171L1740.26 421.465ZM1612.4 42.1856L1414.68 575.258L1429.95 580.92L1627.67 47.8476L1612.4 42.1856ZM1662.04 36.8757H1620.03V53.1575H1662.04V36.8757ZM1493.7 522.301L1669.67 47.8476L1654.41 42.1856L1478.43 516.639L1493.7 522.301ZM1427.83 584.082L1491.57 525.462L1480.55 513.477L1416.8 572.097L1427.83 584.082ZM1382.23 694.31H1402.74V678.029H1382.23V694.31ZM1389.54 643.037L1374.6 683.338L1389.86 689L1404.81 648.699L1389.54 643.037ZM2048.28 39.0108L1391.68 639.863L1402.67 651.874L2059.28 51.0224L2048.28 39.0108ZM2102.63 36.8757H2053.78V53.1575H2102.63V36.8757ZM1408.24 692.172L2108.12 51.0194L2097.13 39.0138L1397.24 680.167L1408.24 692.172ZM1833.56 694.31H1883.38V678.028H1833.56V694.31ZM1732.59 424.171L1825.88 688.875L1841.24 683.463L1747.94 418.759L1732.59 424.171ZM1773.1 380.634L1734.79 415.439L1745.74 427.49L1784.05 392.685L1773.1 380.634ZM1891.06 683.48L1786.26 383.97L1770.89 389.348L1875.7 688.858L1891.06 683.48Z" fill="#41B6E6"/>
<path d="M2156.84 685.1L2377.52 24.0386L2406.95 0L2420.33 24.0386L2199.66 685.1H2156.84Z" fill="#F884D9"/>
<path d="M2210.36 685.1L2427.02 36.0579L2440.41 60.0965L2231.77 685.1H2210.36Z" fill="#F884D9"/>
<path d="M2124.73 685.1H2146.14L2362.8 36.0579L2333.37 60.0965L2124.73 685.1Z" fill="#F884D9"/>
<path d="M2271.09 681.587H2420.56C2467.45 681.587 2514.67 674.565 2562.21 660.521C2609.75 646.477 2654.57 625.716 2696.68 598.238C2739.43 570.76 2777.29 537.175 2810.24 497.485C2844.08 457.184 2870.4 411.693 2889.19 361.011C2907.99 310.329 2915.42 264.838 2911.48 224.537C2908.19 184.236 2895.25 150.652 2872.65 123.784C2850.93 96.3064 2821.51 75.5453 2784.39 61.501C2747.26 47.4567 2705.26 40.4346 2658.36 40.4346H2508.9L2493.95 80.7356H2643.42C2728.73 80.7356 2792.08 104.855 2833.45 153.094C2873.92 203.776 2877.85 273.081 2845.23 361.011C2812.62 448.941 2757.28 518.246 2679.22 568.928C2602.06 617.167 2520.82 641.286 2435.51 641.286H2286.04L2271.09 681.587Z" fill="#41B6E6"/>
<path d="M2271.09 681.587L2263.46 678.756L2259.39 689.728H2271.09V681.587ZM2286.04 641.286V633.145H2280.38L2278.41 638.455L2286.04 641.286ZM2679.22 568.928L2683.53 575.831L2683.59 575.794L2683.65 575.756L2679.22 568.928ZM2833.45 153.094L2839.81 148.015L2839.72 147.903L2839.63 147.794L2833.45 153.094ZM2493.95 80.7356L2486.32 77.9045L2482.25 88.8765H2493.95V80.7356ZM2508.9 40.4346V32.2937H2503.23L2501.27 37.6035L2508.9 40.4346ZM2784.39 61.501L2781.51 69.1152L2781.51 69.1152L2784.39 61.501ZM2872.65 123.784L2866.27 128.833L2866.34 128.93L2866.42 129.025L2872.65 123.784ZM2911.48 224.537L2903.37 225.199L2903.37 225.264L2903.38 225.329L2911.48 224.537ZM2810.24 497.485L2804.01 492.25L2804 492.267L2803.98 492.284L2810.24 497.485ZM2696.68 598.238L2692.28 591.389L2692.25 591.404L2692.23 591.42L2696.68 598.238ZM2420.56 673.447H2271.09V689.728H2420.56V673.447ZM2559.9 652.714C2513.07 666.549 2466.63 673.447 2420.56 673.447V689.728C2468.27 689.728 2516.27 682.581 2564.51 668.328L2559.9 652.714ZM2692.23 591.42C2650.78 618.472 2606.67 638.897 2559.9 652.714L2564.51 668.328C2612.83 654.057 2658.37 632.959 2701.13 605.055L2692.23 591.42ZM2803.98 492.284C2771.55 531.343 2734.32 564.369 2692.28 591.389L2701.08 605.086C2744.55 577.15 2783.03 543.008 2816.51 502.686L2803.98 492.284ZM2881.56 358.18C2863.08 408.01 2837.23 452.684 2804.01 492.25L2816.48 502.719C2850.93 461.684 2877.71 415.375 2896.83 363.842L2881.56 358.18ZM2903.38 225.329C2907.17 264.063 2900.07 308.285 2881.56 358.18L2896.83 363.842C2915.92 312.373 2923.68 265.613 2919.58 223.745L2903.38 225.329ZM2866.42 129.025C2887.77 154.409 2900.2 186.318 2903.37 225.199L2919.6 223.875C2916.19 182.154 2902.73 146.894 2878.88 118.544L2866.42 129.025ZM2781.51 69.1152C2817.44 82.7087 2845.58 102.66 2866.27 128.833L2879.04 118.736C2856.29 89.953 2825.58 68.382 2787.27 53.8868L2781.51 69.1152ZM2658.36 48.5754C2704.45 48.5754 2745.45 55.476 2781.51 69.1152L2787.27 53.8868C2749.07 39.4374 2706.07 32.2937 2658.36 32.2937V48.5754ZM2508.9 48.5754H2658.36V32.2937H2508.9V48.5754ZM2501.58 83.5666L2516.53 43.2656L2501.27 37.6035L2486.32 77.9045L2501.58 83.5666ZM2643.42 72.5947H2493.95V88.8765H2643.42V72.5947ZM2839.63 147.794C2796.23 97.1882 2730.25 72.5947 2643.42 72.5947V88.8765C2727.22 88.8765 2787.93 112.522 2827.27 158.394L2839.63 147.794ZM2852.87 363.842C2885.99 274.543 2882.79 201.836 2839.81 148.015L2827.09 158.174C2865.05 205.716 2869.71 271.62 2837.6 358.18L2852.87 363.842ZM2683.65 575.756C2763.19 524.113 2819.65 453.4 2852.87 363.842L2837.6 358.18C2805.59 444.481 2751.37 512.379 2674.78 562.1L2683.65 575.756ZM2435.51 649.427C2522.45 649.427 2605.17 624.822 2683.53 575.831L2674.9 562.025C2598.95 609.511 2519.19 633.145 2435.51 633.145V649.427ZM2286.04 649.427H2435.51V633.145H2286.04V649.427ZM2278.72 684.418L2293.67 644.117L2278.41 638.455L2263.46 678.756L2278.72 684.418Z" fill="#41B6E6"/>
<path d="M3203.41 687.999C3119.9 683.115 3058.26 654.415 3018.47 601.902C2975.11 541.45 2971.89 461.459 3008.81 361.927C3027.61 311.246 3052.95 265.754 3084.83 225.453C3117.59 184.542 3154.81 150.042 3196.48 121.953C3275.23 69.4396 3358.16 40.7404 3445.29 35.8555L3430 77.0724C3354.17 81.3468 3282.81 106.077 3215.9 151.263C3139.56 202.555 3084.86 272.777 3051.79 361.927C3018.73 451.078 3021.34 521.3 3059.63 572.592C3093.01 617.778 3146.04 642.508 3218.7 646.782L3203.41 687.999Z" fill="#41B6E6"/>
<path d="M3561.93 687.999H3245.42L3260.7 646.782C3337.84 642.508 3409.53 617.778 3475.79 572.592C3551.25 521.91 3605.62 451.689 3638.91 361.927C3672.21 272.166 3669.92 201.945 3632.06 151.263C3599.32 106.077 3545.97 81.3468 3472.01 77.0724L3487.3 35.8555C3572.11 40.7404 3633.75 69.4396 3672.24 121.953C3693.08 150.042 3704.71 184.542 3707.12 225.453C3709.75 265.754 3701.67 311.246 3682.87 361.927C3664.08 412.609 3638.41 458.1 3605.88 498.401C3551.89 564.959 3486.75 615.03 3410.47 648.614H3576.54L3561.93 687.999Z" fill="#41B6E6"/>
<path d="M3018.47 601.902L3011.85 606.646L3011.92 606.733L3011.98 606.818L3018.47 601.902ZM3203.41 687.999L3202.93 696.126L3208.95 696.478L3211.04 690.83L3203.41 687.999ZM3218.7 646.782L3226.33 649.613L3230.15 639.302L3219.17 638.656L3218.7 646.782ZM3059.63 572.592L3066.17 567.754L3066.16 567.738L3066.15 567.722L3059.63 572.592ZM3051.79 361.927L3044.16 359.096L3051.79 361.927ZM3215.9 151.263L3220.44 158.02L3220.45 158.015L3220.45 158.009L3215.9 151.263ZM3430 77.0724L3430.46 85.2004L3435.78 84.9004L3437.64 79.9034L3430 77.0724ZM3445.29 35.8555L3452.92 38.6865L3457.25 27.0315L3444.84 27.7274L3445.29 35.8555ZM3196.48 121.953L3191.97 115.18L3191.95 115.191L3191.93 115.202L3196.48 121.953ZM3084.83 225.453L3078.47 220.365L3078.46 220.384L3078.44 220.403L3084.83 225.453ZM3008.81 361.927L3001.18 359.096L3008.81 361.927ZM3245.42 687.999L3237.78 685.168L3233.71 696.14H3245.42V687.999ZM3561.93 687.999V696.14H3567.6L3569.57 690.83L3561.93 687.999ZM3576.54 648.614L3584.17 651.445L3588.24 640.473H3576.54V648.614ZM3410.47 648.614L3407.19 641.164L3410.47 656.755V648.614ZM3605.88 498.401L3612.2 503.53L3612.21 503.522L3612.21 503.515L3605.88 498.401ZM3707.12 225.453L3698.99 225.932L3698.99 225.959L3698.99 225.985L3707.12 225.453ZM3672.24 121.953L3665.67 126.765L3665.69 126.785L3665.7 126.804L3672.24 121.953ZM3487.3 35.8555L3487.77 27.7281L3481.76 27.382L3479.67 33.0244L3487.3 35.8555ZM3472.01 77.0724L3464.38 74.2414L3460.55 84.5645L3471.54 85.1997L3472.01 77.0724ZM3632.06 151.263L3625.47 156.039L3625.5 156.087L3625.54 156.135L3632.06 151.263ZM3475.79 572.592L3471.25 565.834L3471.22 565.85L3471.2 565.866L3475.79 572.592ZM3260.7 646.782L3260.25 638.654L3254.93 638.949L3253.07 643.951L3260.7 646.782ZM3011.98 606.818C3053.58 661.72 3117.74 691.143 3202.93 696.126L3203.88 679.872C3122.07 675.086 3062.94 647.111 3024.96 596.985L3011.98 606.818ZM3001.18 359.096C2963.75 459.997 2966.31 543.147 3011.85 606.646L3025.09 597.157C2983.91 539.754 2980.03 462.92 3016.44 364.758L3001.18 359.096ZM3078.44 220.403C3046.01 261.408 3020.26 307.656 3001.18 359.096L3016.44 364.758C3034.96 314.836 3059.89 270.101 3091.21 230.504L3078.44 220.403ZM3191.93 115.202C3149.54 143.77 3111.72 178.839 3078.47 220.365L3091.18 230.542C3123.45 190.245 3160.07 156.313 3201.03 128.704L3191.93 115.202ZM3444.84 27.7274C3356.14 32.7004 3271.81 61.9312 3191.97 115.18L3201 128.726C3278.64 76.9481 3360.19 48.7804 3445.75 43.9836L3444.84 27.7274ZM3437.64 79.9034L3452.92 38.6865L3437.66 33.0244L3422.37 74.2414L3437.64 79.9034ZM3220.45 158.009C3286.22 113.591 3356.19 89.3869 3430.46 85.2004L3429.55 68.9444C3352.16 73.3067 3279.39 98.5628 3211.34 144.517L3220.45 158.009ZM3059.43 364.758C3091.92 277.15 3145.57 208.326 3220.44 158.02L3211.36 144.506C3133.55 196.784 3077.8 268.403 3044.16 359.096L3059.43 364.758ZM3066.15 567.722C3030.22 519.587 3026.82 452.664 3059.43 364.758L3044.16 359.096C3010.63 449.493 3012.46 523.012 3053.1 577.462L3066.15 567.722ZM3219.17 638.656C3148.16 634.478 3097.72 610.455 3066.17 567.754L3053.08 577.43C3088.3 625.101 3143.91 650.538 3218.22 654.909L3219.17 638.656ZM3211.04 690.83L3226.33 649.613L3211.06 643.951L3195.78 685.168L3211.04 690.83ZM3245.42 696.14H3561.93V679.859H3245.42V696.14ZM3253.07 643.951L3237.78 685.168L3253.05 690.83L3268.34 649.613L3253.07 643.951ZM3471.2 565.866C3406.12 610.25 3335.85 634.465 3260.25 638.654L3261.15 654.911C3339.83 650.551 3412.94 625.306 3480.37 579.318L3471.2 565.866ZM3631.28 359.096C3598.55 447.347 3545.21 516.157 3471.25 565.834L3480.33 579.35C3557.28 527.664 3612.69 456.03 3646.55 364.758L3631.28 359.096ZM3625.54 156.135C3661.01 203.622 3664.14 270.515 3631.28 359.096L3646.55 364.758C3680.28 273.817 3678.83 200.268 3638.58 146.391L3625.54 156.135ZM3471.54 85.1997C3543.92 89.3825 3594.6 113.436 3625.47 156.039L3638.65 146.487C3604.04 98.7181 3548.03 73.311 3472.48 68.9451L3471.54 85.1997ZM3479.67 33.0244L3464.38 74.2414L3479.64 79.9034L3494.93 38.6865L3479.67 33.0244ZM3678.8 117.141C3638.47 62.1055 3574.21 32.707 3487.77 27.7281L3486.83 43.9829C3570.01 48.7739 3629.03 76.7738 3665.67 126.765L3678.8 117.141ZM3715.24 224.975C3712.76 182.759 3700.71 146.668 3678.78 117.102L3665.7 126.804C3685.45 153.415 3696.66 186.325 3698.99 225.932L3715.24 224.975ZM3690.51 364.758C3709.58 313.348 3717.97 266.683 3715.24 224.922L3698.99 225.985C3701.53 264.826 3693.77 309.144 3675.24 359.096L3690.51 364.758ZM3612.21 503.515C3645.32 462.499 3671.42 416.23 3690.51 364.758L3675.24 359.096C3656.74 408.988 3631.5 453.702 3599.54 493.288L3612.21 503.515ZM3413.75 656.065C3491.25 621.945 3557.42 571.063 3612.2 503.53L3599.56 493.273C3546.35 558.855 3482.25 608.116 3407.19 641.164L3413.75 656.065ZM3576.54 640.473H3410.47V656.755H3576.54V640.473ZM3569.57 690.83L3584.17 651.445L3568.91 645.783L3554.3 685.168L3569.57 690.83Z" fill="#41B6E6"/>
<path d="M3690.27 686.169H3732.27L3970.08 45.0166H3928.07L3690.27 686.169Z" fill="#41B6E6"/>
<path d="M3774.28 686.169H4161.14L4175.74 646.784H3788.89L3774.28 686.169Z" fill="#41B6E6"/>
<path d="M3732.27 686.169V694.31H3737.94L3739.91 689L3732.27 686.169ZM3690.27 686.169L3682.63 683.338L3678.56 694.31H3690.27V686.169ZM3928.07 45.0166V36.8757H3922.41L3920.44 42.1856L3928.07 45.0166ZM3970.08 45.0166L3977.71 47.8476L3981.78 36.8757H3970.08V45.0166ZM4161.14 686.169V694.31H4166.8L4168.77 689L4161.14 686.169ZM3774.28 686.169L3766.65 683.338L3762.58 694.31H3774.28V686.169ZM3788.89 646.784V638.643H3783.23L3781.26 643.953L3788.89 646.784ZM4175.74 646.784L4183.38 649.615L4187.45 638.643H4175.74V646.784ZM3732.27 678.029H3690.27V694.31H3732.27V678.029ZM3962.45 42.1856L3724.64 683.338L3739.91 689L3977.71 47.8476L3962.45 42.1856ZM3928.07 53.1575H3970.08V36.8757H3928.07V53.1575ZM3697.9 689L3935.71 47.8476L3920.44 42.1856L3682.63 683.338L3697.9 689ZM4161.14 678.028H3774.28V694.31H4161.14V678.028ZM4168.11 643.953L4153.5 683.338L4168.77 689L4183.38 649.615L4168.11 643.953ZM3788.89 654.925H4175.74V638.643H3788.89V654.925ZM3781.91 689L3796.52 649.615L3781.26 643.953L3766.65 683.338L3781.91 689Z" fill="#41B6E6"/>
</svg>
