<svg width="1377" height="1377" viewBox="0 0 1377 1377" fill="none" xmlns="http://www.w3.org/2000/svg">
<g clip-path="url(#clip0_431_185)">
<mask id="mask0_431_185" style="mask-type:alpha" maskUnits="userSpaceOnUse" x="0" y="0" width="1377" height="1377">
<circle cx="688.5" cy="688.5" r="688.5" fill="#D9D9D9"/>
</mask>
<g mask="url(#mask0_431_185)">
<circle cx="688.5" cy="688.5" r="688.5" fill="#242526"/>
<path d="M492.806 776.46V810.043L532.674 843.626L492.806 877.209V910.792L566.243 843.626L492.806 776.46Z" fill="white"/>
<path d="M310.21 776.46V810.043L270.342 843.626L310.21 877.209V910.792L236.773 843.626L310.21 776.46Z" fill="white"/>
<path d="M122 668.306H140.947L248.206 379H229.259L122 668.306Z" fill="#F884D9"/>
<path d="M140.947 668.306V672.263H143.7L144.657 669.682L140.947 668.306ZM122 668.306L118.289 666.93L116.312 672.263H122V668.306ZM229.259 379V375.042H226.505L225.548 377.624L229.259 379ZM248.206 379L251.917 380.376L253.894 375.042H248.206V379ZM140.947 664.348H122V672.263H140.947V664.348ZM244.495 377.624L137.236 666.93L144.657 669.682L251.917 380.376L244.495 377.624ZM229.259 382.958H248.206V375.042H229.259V382.958ZM125.711 669.682L232.97 380.376L225.548 377.624L118.289 666.93L125.711 669.682Z" fill="#F884D9"/>
<path d="M159.893 668.306H227.308C248.458 668.306 269.754 665.137 291.197 658.8C312.64 652.463 332.857 643.095 351.847 630.696C371.131 618.297 388.206 603.143 403.07 585.234C418.331 567.049 430.201 546.522 438.679 523.653C447.158 500.784 450.509 480.257 448.732 462.072C447.249 443.887 441.411 428.733 431.219 416.61C421.422 404.211 408.152 394.843 391.408 388.506C374.664 382.169 355.717 379 334.567 379H267.152L260.41 397.185H327.825C366.306 397.185 394.877 408.068 413.538 429.835C431.79 452.704 433.561 483.977 418.851 523.653C404.142 563.329 379.182 594.602 343.972 617.471C309.171 639.237 272.531 650.121 234.05 650.121H166.635L159.893 668.306Z" fill="#41B6E6"/>
<path d="M159.893 668.306L156.182 666.93L154.205 672.263H159.893V668.306ZM166.635 650.121V646.163H163.881L162.924 648.745L166.635 650.121ZM343.972 617.471L346.071 620.826L346.1 620.808L346.128 620.79L343.972 617.471ZM413.538 429.835L416.631 427.366L416.587 427.312L416.542 427.259L413.538 429.835ZM260.41 397.185L256.699 395.809L254.722 401.143H260.41V397.185ZM267.152 379V375.042H264.399L263.441 377.624L267.152 379ZM431.219 416.61L428.114 419.063L428.151 419.111L428.19 419.157L431.219 416.61ZM448.732 462.072L444.788 462.394L444.79 462.425L444.793 462.457L448.732 462.072ZM403.07 585.234L400.039 582.69L400.032 582.698L400.025 582.706L403.07 585.234ZM351.847 630.696L349.707 627.367L349.695 627.375L349.683 627.382L351.847 630.696ZM291.197 658.8L290.075 655.005L291.197 658.8ZM227.308 664.348H159.893V672.263H227.308V664.348ZM290.075 655.005C268.976 661.24 248.057 664.348 227.308 664.348V672.263C248.859 672.263 270.532 669.034 292.319 662.595L290.075 655.005ZM349.683 627.382C331.01 639.574 311.144 648.778 290.075 655.005L292.319 662.595C314.136 656.148 334.703 646.616 354.011 634.01L349.683 627.382ZM400.025 582.706C385.415 600.308 368.645 615.191 349.707 627.367L353.987 634.025C373.618 621.404 390.996 605.978 406.116 587.761L400.025 582.706ZM434.968 522.277C426.643 544.732 415 564.862 400.039 582.69L406.102 587.778C421.662 569.236 433.758 548.311 442.39 525.029L434.968 522.277ZM444.793 462.457C446.496 479.88 443.305 499.791 434.968 522.277L442.39 525.029C451.011 501.777 454.522 480.634 452.671 461.687L444.793 462.457ZM428.19 419.157C437.776 430.559 443.361 444.899 444.788 462.394L452.677 461.75C451.138 442.875 445.047 426.907 434.248 414.063L428.19 419.157ZM390.007 392.207C406.171 398.325 418.818 407.299 428.114 419.063L434.324 414.156C424.026 401.123 410.132 391.361 392.809 384.804L390.007 392.207ZM334.567 382.958C355.323 382.958 373.783 386.067 390.007 392.207L392.809 384.804C375.544 378.27 356.11 375.042 334.567 375.042V382.958ZM267.152 382.958H334.567V375.042H267.152V382.958ZM264.121 398.561L270.863 380.376L263.441 377.624L256.699 395.809L264.121 398.561ZM327.825 393.227H260.41V401.143H327.825V393.227ZM416.542 427.259C396.895 404.341 367.043 393.227 327.825 393.227V401.143C365.568 401.143 392.859 411.795 410.533 432.411L416.542 427.259ZM422.562 525.029C437.519 484.687 436.101 451.761 416.631 427.366L410.444 432.304C427.479 453.647 429.604 483.266 415.141 522.277L422.562 525.029ZM346.128 620.79C382.058 597.453 407.559 565.496 422.562 525.029L415.141 522.277C400.724 561.162 376.306 591.75 341.817 614.152L346.128 620.79ZM234.05 654.078C273.323 654.078 310.685 642.959 346.071 620.826L341.874 614.115C307.658 635.516 271.738 646.163 234.05 646.163V654.078ZM166.635 654.078H234.05V646.163H166.635V654.078ZM163.604 669.681L170.346 651.497L162.924 648.745L156.182 666.93L163.604 669.681Z" fill="#41B6E6"/>
<path d="M441.573 669.132H460.519L567.778 379.826H548.832L441.573 669.132Z" fill="#41B6E6"/>
<path d="M654.833 669.132H677.745L636.221 542.251C651.815 540.597 667.102 536.602 682.083 530.265C697.357 523.928 710.907 515.111 722.733 503.814C734.852 492.518 744.028 478.466 750.259 461.658C757.512 442.096 758.781 426.391 754.068 414.543C749.456 402.42 740.241 393.603 726.421 388.092C712.896 382.581 696.439 379.826 677.052 379.826H586.725L580.136 397.598H670.463C685.151 397.598 697.993 399.802 708.989 404.211C720.088 408.343 727.72 415.094 731.884 424.462C736.342 433.83 735.711 446.229 729.99 461.658C724.372 476.812 715.81 489.211 704.303 498.855C693.193 508.223 680.505 515.111 666.239 519.52C652.076 523.652 637.65 525.719 622.963 525.719H532.636L526.047 543.491H613.731L654.833 669.132Z" fill="#41B6E6"/>
<path d="M460.519 669.132V673.09H463.273L464.23 670.508L460.519 669.132ZM441.573 669.132L437.862 667.756L435.885 673.09H441.573V669.132ZM548.832 379.826V375.869H546.078L545.121 378.45L548.832 379.826ZM567.778 379.826L571.489 381.202L573.467 375.869H567.778V379.826ZM677.745 669.132V673.09H683.204L681.506 667.901L677.745 669.132ZM654.833 669.132L651.071 670.362L651.963 673.09H654.833V669.132ZM613.731 543.491L617.492 542.26L616.6 539.533H613.731V543.491ZM526.047 543.491L522.336 542.115L520.359 547.448H526.047V543.491ZM532.636 525.719V521.761H529.882L528.925 524.343L532.636 525.719ZM666.239 519.52L667.348 523.319L667.378 523.31L667.408 523.301L666.239 519.52ZM704.303 498.855L701.761 495.822L701.752 495.829L704.303 498.855ZM729.99 461.658L733.701 463.034L729.99 461.658ZM731.884 424.462L728.268 426.069L728.288 426.116L728.31 426.163L731.884 424.462ZM708.989 404.211L707.517 407.884L707.562 407.902L707.608 407.919L708.989 404.211ZM580.136 397.598L576.426 396.222L574.448 401.555H580.136V397.598ZM586.725 379.826V375.869H583.972L583.014 378.45L586.725 379.826ZM726.421 388.092L724.928 391.757L724.942 391.763L724.956 391.768L726.421 388.092ZM754.068 414.543L750.368 415.95L750.379 415.978L750.39 416.006L754.068 414.543ZM750.259 461.658L753.97 463.034V463.034L750.259 461.658ZM722.733 503.814L720.034 500.919L720.017 500.936L719.999 500.953L722.733 503.814ZM682.083 530.265L680.566 526.61L680.554 526.615L680.541 526.62L682.083 530.265ZM636.221 542.251L635.804 538.315L630.938 538.831L632.46 543.482L636.221 542.251ZM460.519 665.174H441.573V673.09H460.519V665.174ZM564.068 378.45L456.809 667.756L464.23 670.508L571.489 381.202L564.068 378.45ZM548.832 383.784H567.778V375.869H548.832V383.784ZM445.284 670.508L552.543 381.202L545.121 378.45L437.862 667.756L445.284 670.508ZM677.745 665.174H654.833V673.09H677.745V665.174ZM632.46 543.482L673.984 670.363L681.506 667.901L639.983 541.02L632.46 543.482ZM680.541 526.62C665.906 532.811 650.996 536.704 635.804 538.315L636.638 546.186C652.634 544.491 668.299 540.393 683.625 533.91L680.541 526.62ZM719.999 500.953C708.531 511.908 695.395 520.458 680.566 526.61L683.6 533.921C699.32 527.398 713.284 518.314 725.467 506.676L719.999 500.953ZM746.548 460.283C740.513 476.56 731.666 490.077 720.034 500.919L725.431 506.709C738.038 494.958 747.542 480.371 753.97 463.034L746.548 460.283ZM750.39 416.006C754.572 426.517 753.664 441.089 746.548 460.283L753.97 463.034C761.359 443.102 762.99 426.264 757.745 413.08L750.39 416.006ZM724.956 391.768C737.912 396.935 746.21 405.019 750.368 415.95L757.767 413.136C752.702 399.82 742.569 390.27 727.887 384.416L724.956 391.768ZM677.052 383.784C696.086 383.784 712.004 386.492 724.928 391.757L727.915 384.427C713.787 378.671 696.793 375.869 677.052 375.869V383.784ZM586.725 383.784H677.052V375.869H586.725V383.784ZM583.847 398.974L590.436 381.202L583.014 378.45L576.426 396.222L583.847 398.974ZM670.463 393.64H580.136V401.555H670.463V393.64ZM710.462 400.537C698.9 395.902 685.538 393.64 670.463 393.64V401.555C684.763 401.555 697.086 403.702 707.517 407.884L710.462 400.537ZM735.501 422.854C730.836 412.361 722.298 404.943 710.371 400.502L707.608 407.919C717.878 411.744 724.604 417.827 728.268 426.069L735.501 422.854ZM733.701 463.034C739.582 447.172 740.583 433.531 735.458 422.761L728.31 426.163C732.101 434.128 731.84 445.285 726.28 460.283L733.701 463.034ZM706.845 501.888C718.919 491.769 727.863 478.782 733.701 463.034L726.28 460.283C720.881 474.843 712.7 486.653 701.761 495.822L706.845 501.888ZM667.408 523.301C682.166 518.74 695.327 511.6 706.854 501.881L701.752 495.829C691.058 504.846 678.843 511.482 665.071 515.738L667.408 523.301ZM622.963 529.677C638.027 529.677 652.826 527.556 667.348 523.319L665.13 515.72C651.326 519.749 637.273 521.761 622.963 521.761V529.677ZM532.636 529.677H622.963V521.761H532.636V529.677ZM529.758 544.866L536.347 527.095L528.925 524.343L522.336 542.115L529.758 544.866ZM613.731 539.533H526.047V547.448H613.731V539.533ZM658.594 667.901L617.492 542.26L609.969 544.721L651.071 670.362L658.594 667.901Z" fill="#41B6E6"/>
<path d="M758.103 621.603L847.282 381.066H866.228L786.856 595.152L758.103 621.603Z" fill="#41B6E6"/>
<path d="M749.275 670.372H740.022L746.764 652.187L1042.92 381.066H1064.95L749.275 670.372Z" fill="#41B6E6"/>
<path d="M966.06 670.372H943.589L901.51 550.93L918.789 535.224L966.06 670.372Z" fill="#41B6E6"/>
<path d="M847.282 381.066V377.108H844.528L843.571 379.69L847.282 381.066ZM758.103 621.603L754.392 620.227L760.783 624.516L758.103 621.603ZM786.856 595.152L789.536 598.065L790.236 597.42L790.567 596.528L786.856 595.152ZM866.228 381.066L869.939 382.442L871.916 377.108H866.228V381.066ZM740.022 670.372L736.312 668.996L734.334 674.329H740.022V670.372ZM749.275 670.372V674.329H750.815L751.949 673.289L749.275 670.372ZM1064.95 381.066L1067.62 383.984L1075.12 377.108H1064.95V381.066ZM1042.92 381.066V377.108H1041.38L1040.24 378.147L1042.92 381.066ZM746.764 652.187L744.092 649.268L743.386 649.914L743.054 650.811L746.764 652.187ZM943.589 670.372L939.856 671.687L940.787 674.329H943.589V670.372ZM966.06 670.372V674.329H971.637L969.796 669.065L966.06 670.372ZM918.789 535.224L922.524 533.918L920.551 528.275L916.127 532.296L918.789 535.224ZM901.51 550.93L898.848 548.001L896.904 549.767L897.777 552.245L901.51 550.93ZM843.571 379.69L754.392 620.227L761.814 622.979L850.992 382.442L843.571 379.69ZM866.228 377.108H847.282V385.024H866.228V377.108ZM790.567 596.528L869.939 382.442L862.517 379.69L783.146 593.776L790.567 596.528ZM760.783 624.516L789.536 598.065L784.177 592.239L755.424 618.69L760.783 624.516ZM740.022 674.329H749.275V666.414H740.022V674.329ZM743.054 650.811L736.312 668.996L743.733 671.747L750.475 653.562L743.054 650.811ZM1040.24 378.147L744.092 649.268L749.437 655.106L1045.59 383.985L1040.24 378.147ZM1064.95 377.108H1042.92V385.024H1064.95V377.108ZM751.949 673.289L1067.62 383.984L1062.27 378.148L746.601 667.454L751.949 673.289ZM943.589 674.329H966.06V666.414H943.589V674.329ZM897.777 552.245L939.856 671.687L947.322 669.056L905.243 549.615L897.777 552.245ZM916.127 532.296L898.848 548.001L904.172 553.858L921.451 538.153L916.127 532.296ZM969.796 669.065L922.524 533.918L915.053 536.531L962.325 671.678L969.796 669.065Z" fill="#41B6E6"/>
<path d="M339.544 997.272L439.077 698.983L452.352 688.136L458.388 698.983L358.856 997.272H339.544Z" fill="#F884D9"/>
<path d="M363.684 997.272L461.407 704.406L467.443 715.253L373.34 997.272H363.684Z" fill="#F884D9"/>
<path d="M325.061 997.272H334.716L432.439 704.406L419.164 715.253L325.061 997.272Z" fill="#F884D9"/>
<path d="M396.824 995.106H464.239C485.388 995.106 506.685 991.938 528.128 985.601C549.571 979.264 569.787 969.896 588.778 957.497C608.062 945.098 625.136 929.944 640.001 912.034C655.262 893.849 667.131 873.323 675.61 850.454C684.089 827.585 687.44 807.058 685.663 788.873C684.18 770.688 678.342 755.534 668.15 743.411C658.353 731.012 645.082 721.644 628.338 715.307C611.594 708.969 592.647 705.801 571.498 705.801H504.083L497.341 723.986H564.756C603.237 723.986 631.807 734.869 650.468 756.636C668.721 779.505 670.492 810.777 655.782 850.454C641.072 890.13 616.113 921.402 580.903 944.271C546.102 966.038 509.461 976.922 470.981 976.922H403.566L396.824 995.106Z" fill="#41B6E6"/>
<path d="M396.824 995.106L393.113 993.731L391.136 999.064H396.824V995.106ZM403.566 976.922V972.964H400.812L399.855 975.546L403.566 976.922ZM580.903 944.271L583.002 947.627L583.03 947.609L583.059 947.59L580.903 944.271ZM650.468 756.636L653.562 754.167L653.518 754.113L653.473 754.06L650.468 756.636ZM497.341 723.986L493.63 722.61L491.653 727.943H497.341V723.986ZM504.083 705.801V701.843H501.329L500.372 704.425L504.083 705.801ZM628.338 715.307L626.937 719.008V719.008L628.338 715.307ZM668.15 743.411L665.044 745.864L665.082 745.911L665.12 745.957L668.15 743.411ZM685.663 788.873L681.718 789.195L681.721 789.226L681.724 789.258L685.663 788.873ZM640.001 912.034L636.97 909.49L636.963 909.499L636.956 909.507L640.001 912.034ZM588.778 957.497L586.637 954.168L586.626 954.175L586.614 954.183L588.778 957.497ZM464.239 991.149H396.824V999.064H464.239V991.149ZM527.006 981.805C505.906 988.041 484.987 991.149 464.239 991.149V999.064C485.789 999.064 507.463 995.835 529.249 989.396L527.006 981.805ZM586.614 954.183C567.941 966.374 548.075 975.579 527.006 981.805L529.249 989.396C551.067 982.948 571.634 973.417 590.941 960.811L586.614 954.183ZM636.956 909.507C622.346 927.109 605.575 941.992 586.637 954.168L590.918 960.826C610.548 948.204 627.927 932.779 643.046 914.562L636.956 909.507ZM671.899 849.078C663.574 871.533 651.93 891.663 636.97 909.49L643.033 914.579C658.593 896.036 670.689 875.112 679.321 851.829L671.899 849.078ZM681.724 789.258C683.426 806.681 680.236 826.591 671.899 849.078L679.321 851.829C687.941 828.578 691.453 807.435 689.602 788.488L681.724 789.258ZM665.12 745.957C674.707 757.36 680.292 771.7 681.718 789.195L689.607 788.551C688.068 769.676 681.978 753.708 671.179 740.864L665.12 745.957ZM626.937 719.008C643.102 725.126 655.749 734.1 665.044 745.864L671.255 740.957C660.957 727.924 647.063 718.162 629.739 711.605L626.937 719.008ZM571.498 709.758C592.254 709.758 610.714 712.868 626.937 719.008L629.739 711.605C612.474 705.071 593.041 701.843 571.498 701.843V709.758ZM504.083 709.758H571.498V701.843H504.083V709.758ZM501.052 725.361L507.794 707.177L500.372 704.425L493.63 722.61L501.052 725.361ZM564.756 720.028H497.341V727.943H564.756V720.028ZM653.473 754.06C633.825 731.142 603.974 720.028 564.756 720.028V727.943C602.499 727.943 629.79 738.596 647.464 759.212L653.473 754.06ZM659.493 851.829C674.45 811.488 673.032 778.562 653.562 754.167L647.375 759.105C664.409 780.448 666.534 810.067 652.071 849.078L659.493 851.829ZM583.059 947.59C618.988 924.254 644.49 892.297 659.493 851.829L652.071 849.078C637.655 887.963 613.237 918.551 578.747 940.952L583.059 947.59ZM470.981 980.879C510.254 980.879 547.615 969.76 583.002 947.627L578.804 940.916C544.589 962.317 508.669 972.964 470.981 972.964V980.879ZM403.566 980.879H470.981V972.964H403.566V980.879ZM400.535 996.482L407.276 978.297L399.855 975.546L393.113 993.731L400.535 996.482Z" fill="#41B6E6"/>
<path d="M817.333 998C779.669 995.796 751.864 982.846 733.918 959.151C714.363 931.873 712.911 895.779 729.561 850.867C738.04 827.999 749.469 807.472 763.848 789.287C778.624 770.826 795.411 755.259 814.209 742.584C849.725 718.889 887.132 705.939 926.43 703.735L919.535 722.333C885.333 724.262 853.143 735.421 822.965 755.81C788.535 778.954 763.863 810.64 748.949 850.867C734.034 891.095 735.212 922.781 752.481 945.925C767.54 966.314 791.456 977.473 824.228 979.402L817.333 998Z" fill="#41B6E6"/>
<path d="M979.04 998H836.279L843.175 979.402C877.964 977.473 910.301 966.314 940.185 945.925C974.219 923.056 998.745 891.37 1013.76 850.867C1028.78 810.365 1027.75 778.679 1010.67 755.81C995.904 735.421 971.841 724.262 938.482 722.333L945.377 703.735C983.628 705.939 1011.43 718.889 1028.79 742.584C1038.19 755.259 1043.44 770.826 1044.52 789.287C1045.71 807.472 1042.07 827.999 1033.59 850.867C1025.11 873.736 1013.53 894.263 998.861 912.448C974.508 942.481 945.129 965.074 910.724 980.228H985.629L979.04 998Z" fill="#41B6E6"/>
<path d="M733.918 959.151L730.702 961.456L730.732 961.499L730.763 961.54L733.918 959.151ZM817.333 998L817.101 1001.95L820.025 1002.12L821.043 999.376L817.333 998ZM824.228 979.402L827.939 980.778L829.797 975.765L824.46 975.451L824.228 979.402ZM752.481 945.925L755.664 943.574L755.659 943.566L755.653 943.558L752.481 945.925ZM748.949 850.867L745.238 849.492L748.949 850.867ZM822.965 755.81L825.173 759.094L825.181 759.089L822.965 755.81ZM919.535 722.333L919.758 726.284L922.345 726.139L923.246 723.709L919.535 722.333ZM926.43 703.735L930.141 705.111L932.242 699.445L926.209 699.783L926.43 703.735ZM814.209 742.584L812.013 739.292L812.005 739.298L811.997 739.303L814.209 742.584ZM763.848 789.287L760.759 786.814L760.751 786.823L760.744 786.832L763.848 789.287ZM729.561 850.867L725.85 849.492H725.85L729.561 850.867ZM836.279 998L832.568 996.624L830.591 1001.96H836.279V998ZM979.04 998V1001.96H981.794L982.751 999.376L979.04 998ZM985.629 980.228L989.34 981.604L991.317 976.271H985.629V980.228ZM910.724 980.228L909.128 976.607L910.724 984.186V980.228ZM998.861 912.448L1001.94 914.941L1001.94 914.934L998.861 912.448ZM1044.52 789.287L1040.57 789.519L1040.57 789.532L1040.57 789.545L1044.52 789.287ZM1028.79 742.584L1025.6 744.923L1025.61 744.933L1025.61 744.942L1028.79 742.584ZM945.377 703.735L945.605 699.784L942.683 699.615L941.666 702.359L945.377 703.735ZM938.482 722.333L934.771 720.957L932.911 725.975L938.253 726.284L938.482 722.333ZM1010.67 755.81L1007.46 758.131L1007.48 758.155L1007.5 758.178L1010.67 755.81ZM940.185 945.925L937.978 942.64L937.966 942.648L937.954 942.656L940.185 945.925ZM843.175 979.402L842.955 975.45L840.365 975.594L839.464 978.026L843.175 979.402ZM730.763 961.54C749.589 986.397 778.617 999.699 817.101 1001.95L817.564 994.049C780.721 991.893 754.14 979.295 737.073 956.761L730.763 961.54ZM725.85 849.492C708.953 895.069 710.084 932.698 730.702 961.456L737.135 956.845C718.642 931.049 716.868 896.489 733.272 852.243L725.85 849.492ZM760.744 786.832C746.094 805.359 734.466 826.254 725.85 849.492L733.272 852.243C741.614 829.743 752.844 809.584 766.953 791.741L760.744 786.832ZM811.997 739.303C792.853 752.21 775.773 768.054 760.759 786.814L766.938 791.76C781.474 773.598 797.969 758.307 816.422 745.866L811.997 739.303ZM926.209 699.783C886.146 702.031 848.065 715.239 812.013 739.292L816.406 745.877C851.386 722.539 888.119 709.848 926.652 707.686L926.209 699.783ZM923.246 723.709L930.141 705.111L922.72 702.359L915.824 720.957L923.246 723.709ZM825.181 759.089C854.806 739.073 886.314 728.17 919.758 726.284L919.312 718.382C884.352 720.353 851.48 731.768 820.75 752.531L825.181 759.089ZM752.659 852.243C767.296 812.766 791.456 781.759 825.173 759.094L820.758 752.525C785.614 776.149 760.43 808.515 745.238 849.492L752.659 852.243ZM755.653 943.558C739.529 921.948 737.97 891.865 752.659 852.243L745.238 849.492C730.099 890.324 730.895 923.613 749.309 948.292L755.653 943.558ZM824.46 975.451C792.488 973.569 769.831 962.755 755.664 943.574L749.297 948.276C765.249 969.874 790.423 981.377 823.995 983.353L824.46 975.451ZM821.043 999.376L827.939 980.778L820.517 978.026L813.622 996.624L821.043 999.376ZM836.279 1001.96H979.04V994.042H836.279V1001.96ZM839.464 978.026L832.568 996.624L839.99 999.376L846.885 980.778L839.464 978.026ZM937.954 942.656C908.642 962.655 876.997 973.563 842.955 975.45L843.394 983.353C878.932 981.383 911.96 969.974 942.415 949.194L937.954 942.656ZM1010.05 849.492C995.306 889.26 971.285 920.26 937.978 942.64L942.392 949.21C977.154 925.853 1002.18 893.48 1017.47 852.243L1010.05 849.492ZM1007.5 758.178C1023.42 779.494 1024.85 809.562 1010.05 849.492L1017.47 852.243C1032.7 811.167 1032.08 777.864 1013.84 753.442L1007.5 758.178ZM938.253 726.284C970.842 728.168 993.608 738.998 1007.46 758.131L1013.87 753.489C998.2 731.844 972.841 720.355 938.71 718.382L938.253 726.284ZM941.666 702.359L934.771 720.957L942.193 723.709L949.088 705.111L941.666 702.359ZM1031.98 740.246C1013.73 715.324 984.65 702.034 945.605 699.784L945.149 707.686C982.607 709.844 1009.14 722.454 1025.6 744.923L1031.98 740.246ZM1048.47 789.054C1047.35 769.96 1041.9 753.619 1031.97 740.227L1025.61 744.942C1034.48 756.898 1039.52 771.692 1040.57 789.519L1048.47 789.054ZM1037.3 852.243C1045.91 829.02 1049.71 807.923 1048.47 789.028L1040.57 789.545C1041.72 807.02 1038.23 826.977 1029.88 849.492L1037.3 852.243ZM1001.94 914.934C1016.9 896.401 1028.68 875.496 1037.3 852.243L1029.88 849.492C1021.54 871.977 1010.17 892.126 995.781 909.963L1001.94 914.934ZM912.319 983.85C947.317 968.435 977.198 945.448 1001.94 914.941L995.787 909.956C971.819 939.514 942.941 961.713 909.128 976.607L912.319 983.85ZM985.629 976.271H910.724V984.186H985.629V976.271ZM982.751 999.376L989.34 981.604L981.918 978.853L975.329 996.624L982.751 999.376Z" fill="#41B6E6"/>
<path d="M1036.92 997.172H1055.87L1163.13 707.866H1144.18L1036.92 997.172Z" fill="#41B6E6"/>
<path d="M1074.82 997.172H1249.3L1255.89 979.4H1081.4L1074.82 997.172Z" fill="#41B6E6"/>
<path d="M1055.87 997.172V1001.13H1058.62L1059.58 998.548L1055.87 997.172ZM1036.92 997.172L1033.21 995.796L1031.23 1001.13H1036.92V997.172ZM1144.18 707.866V703.909H1141.43L1140.47 706.49L1144.18 707.866ZM1163.13 707.866L1166.84 709.242L1168.82 703.909H1163.13V707.866ZM1249.3 997.172V1001.13H1252.05L1253.01 998.548L1249.3 997.172ZM1074.82 997.172L1071.1 995.796L1069.13 1001.13H1074.82V997.172ZM1081.4 979.4V975.443H1078.65L1077.69 978.024L1081.4 979.4ZM1255.89 979.4L1259.6 980.776L1261.58 975.443H1255.89V979.4ZM1055.87 993.214H1036.92V1001.13H1055.87V993.214ZM1159.42 706.49L1052.16 995.796L1059.58 998.548L1166.84 709.242L1159.42 706.49ZM1144.18 711.824H1163.13V703.909H1144.18V711.824ZM1040.63 998.548L1147.89 709.242L1140.47 706.49L1033.21 995.796L1040.63 998.548ZM1249.3 993.214H1074.82V1001.13H1249.3V993.214ZM1252.18 978.025L1245.59 995.796L1253.01 998.548L1259.6 980.776L1252.18 978.025ZM1081.4 983.358H1255.89V975.443H1081.4V983.358ZM1078.53 998.548L1085.12 980.776L1077.69 978.024L1071.1 995.796L1078.53 998.548Z" fill="#41B6E6"/>
</g>
</g>
<defs>
<clipPath id="clip0_431_185">
<rect width="1377" height="1377" fill="white"/>
</clipPath>
</defs>
</svg>
